<svg version="1.1" id="Layer_1" xmlns="http://www.w3.org/2000/svg" xmlns:xlink="http://www.w3.org/1999/xlink" x="0px" y="0px" viewBox="0 0 73 73" style="enable-background:new 0 0 73 73;" xml:space="preserve">
<style type="text/css">
	.st0{fill:none;stroke:#124460;stroke-width:2.8632;stroke-linecap:round;stroke-linejoin:round;}
	.st1{fill:none;stroke:#95222B;stroke-width:2.8632;stroke-linecap:round;stroke-linejoin:round;}
    .st2 {
    fill: none;
    stroke: #95222b;
    stroke-width: 2.4801;
    stroke-linecap: round;
    stroke-linejoin: round;
}
</style>
                                                                    <path class="st0" d="M48,14.7H20.8v-1.1c0-0.6-0.1-1.1-0.3-1.6c-0.2-0.5-0.5-1-0.9-1.4c-0.4-0.4-0.9-0.7-1.4-0.9
                                                                                        	c-0.5-0.2-1.1-0.3-1.6-0.3H6.2c-0.6,0-1.1,0.1-1.6,0.3c-0.5,0.2-1,0.5-1.4,0.9C2.8,11,2.5,11.5,2.3,12C2.1,12.5,2,13,2,13.6v11.6
                                                                                        	c0,0.6,0.1,1.1,0.3,1.6c0.2,0.5,0.5,1,0.9,1.4c0.4,0.4,0.9,0.7,1.4,0.9c0.5,0.2,1.1,0.3,1.6,0.3h10.4c0.6,0,1.1-0.1,1.6-0.3
                                                                                        	c0.5-0.2,1-0.5,1.4-0.9c0.4-0.4,0.7-0.9,0.9-1.4c0.2-0.5,0.3-1.1,0.3-1.6v-1.1h15.1v4.5h11v-4.5h1c1.2,0,2.4-0.5,3.3-1.4
                                                                                        	c0.9-0.9,1.4-2.1,1.4-3.3s-0.5-2.4-1.4-3.3C50.4,15.2,49.2,14.7,48,14.7L48,14.7z"></path>
                                                                    <path class="st1" d="M10.4,22c1.7,0,3.1-1.4,3.1-3.1c0-1.7-1.4-3.1-3.1-3.1c-1.7,0-3.1,1.4-3.1,3.1C7.3,20.7,8.7,22,10.4,22z"></path>
                                                                    <path class="st1" d="M57.3,24.3c-0.7,3.4-2.6,6.5-5.3,8.7c-2.7,2.2-6.1,3.4-9.6,3.4c-3.5,0-6.9-1.3-9.6-3.5
                                                                                        	c-2.7-2.2-4.5-5.3-5.2-8.8"></path>
                                                                    <path class="st1" d="M28.8,14.7c1.3-2.8,3.5-5.1,6.1-6.6s5.7-2.2,8.8-2c3.1,0.3,6,1.4,8.4,3.4c2.4,2,4.1,4.6,4.9,7.5"></path>
                                                                    <path class="st1" d="M23.1,14.7c0.9-2.7,2.4-5.3,4.4-7.4c2-2.1,4.4-3.8,7-4.9"></path>
                                                                    <path class="st1" d="M33.4,39.5c-2.8-1.4-5.3-3.5-7.2-6s-3.2-5.5-3.8-8.6"></path>
                                                                    <path class="st1" d="M49.4,2c3.9,1.4,7.2,3.9,9.6,7.2c2.4,3.3,3.8,7.3,3.9,11.4s-1,8.1-3.2,11.6c-2.2,3.5-5.4,6.2-9.1,7.8"></path>
                                                                </svg>