<svg xmlns="http://www.w3.org/2000/svg">
                            <g clip-path="url(#clip0_349_942)">
                                <path d="M42.5 0C43.9641 0.203125 45.4391 0.348437 46.8875 0.625C48.4938 0.9375 50.0859 1.32969 51.6641 1.75781C52.9875 2.11406 53.6078 3.20625 53.2453 4.35781C52.9 5.45156 51.7984 5.96406 50.5078 5.56875C46.5453 4.34315 42.3961 3.8331 38.2547 4.0625C28.7125 4.59531 20.5656 8.26875 13.9484 15.1562C8.16719 21.1875 4.70313 28.4375 4.15625 36.7578C3.16875 51.8359 9.22344 63.4891 22.2141 71.2734C29.3813 75.5688 37.3031 76.9969 45.5297 75.5672C58.9672 73.2313 68.3891 65.6422 73.5359 53.0047C76.6453 45.3703 76.8063 37.4922 74.4438 29.5984C73.9078 27.8125 75.0938 26.6187 76.3188 26.6781C77.2094 26.7219 77.8813 27.2188 78.1938 28.1797C79.0711 30.9878 79.6293 33.8857 79.8578 36.8188C79.8828 37.1516 79.9531 37.4797 80.0016 37.8109V42.1859C79.9578 42.4125 79.9047 42.6375 79.8719 42.8656C79.6063 44.7172 79.436 46.5875 79.0656 48.4156C75.8875 64.1109 62.7063 76.7812 46.8875 79.3844C45.4297 79.625 43.9625 79.7969 42.5 80H37.5C37.3281 79.9563 37.1578 79.8984 36.9813 79.8719C35.1328 79.5984 33.2625 79.4281 31.4359 79.0453C15.7672 75.7641 3.25156 62.6937 0.614061 46.8922C0.371874 45.4344 0.203125 43.9641 0 42.5V37.5C0.046875 37.2734 0.101563 37.0469 0.137501 36.8188C0.459376 34.7875 0.653125 32.7375 1.11563 30.7453C4.70938 15.2844 17.5406 3.21719 33.1094 0.612502C34.5672 0.370315 36.0359 0.203125 37.5 0H42.5Z" fill="#124460"></path>
                                <path d="M40.1702 67.9203C26.5561 67.7891 14.9139 57.9469 12.6358 44.5109C10.0077 29.0203 20.6952 14.4094 36.2889 12.2516C38.0561 12.0078 39.8702 12.0578 41.6624 12.0578C42.7936 12.0578 43.5624 12.6828 43.8389 13.6297C44.2327 14.9672 43.1983 16.1844 41.7295 16.0578C37.1608 15.6609 32.8827 16.6594 28.8592 18.7797C20.2811 23.2984 15.2952 32.7797 16.3733 42.4484C17.5889 53.3672 25.853 61.9141 36.7717 63.55C49.6749 65.4812 61.9655 56.2953 63.7577 43.3234C63.9842 41.6891 63.942 40.0078 63.9139 38.35C63.8983 37.1 64.5483 36.1625 65.7108 36.0219C66.8374 35.8922 67.8983 36.6891 67.8983 37.9438C67.8983 40.225 68.003 42.5688 67.5405 44.7781C65.0686 56.6047 57.8874 64.0625 46.1827 67.0703C44.2342 67.5703 42.1764 67.6562 40.1702 67.9203Z" fill="#124460"></path>
                                <path d="M52.0799 21.361C52.0799 20.3469 52.0924 19.3298 52.0799 18.3157C52.0661 17.939 52.1334 17.5637 52.2771 17.2152C52.4207 16.8667 52.6375 16.553 52.9127 16.2954C56.7512 12.4766 60.5804 8.64799 64.4002 4.80945C65.0892 4.1157 65.8611 3.79694 66.7939 4.16413C67.7267 4.53132 68.0439 5.33132 68.0314 6.30163C68.0158 7.86413 68.0314 9.42663 68.0314 10.9891C68.0314 11.9798 68.0314 11.9798 69.0627 11.9813C70.6252 11.9813 72.1877 11.9923 73.7502 11.9813C74.6877 11.9719 75.4549 12.2751 75.8314 13.186C76.208 14.0969 75.9189 14.8954 75.2252 15.5876C71.371 19.4282 67.5247 23.2761 63.6861 27.1313C63.4327 27.3945 63.1263 27.6009 62.7872 27.7369C62.4481 27.873 62.084 27.9355 61.7189 27.9204C59.7142 27.9079 57.7096 27.936 55.7064 27.9048C55.4512 27.8907 55.196 27.9338 54.9595 28.0308C54.723 28.1278 54.5111 28.2764 54.3392 28.4657C50.2299 32.6032 46.109 36.7287 41.9767 40.8423C41.7627 41.0697 41.5324 41.2812 41.2877 41.4751C40.9051 41.7638 40.4304 41.9033 39.9524 41.8675C39.4744 41.8317 39.0259 41.623 38.6906 41.2804C38.3553 40.9379 38.1563 40.4849 38.1307 40.0063C38.1052 39.5276 38.2548 39.0561 38.5517 38.6798C38.7504 38.4386 38.9638 38.2101 39.1908 37.9954C43.2752 33.9079 47.3642 29.824 51.458 25.7438C51.8971 25.3079 52.1267 24.8829 52.0924 24.2501C52.0408 23.2907 52.0799 22.3251 52.0799 21.361ZM64.0627 10.9704C63.9064 11.0251 63.8486 11.0298 63.8189 11.0594C61.3283 13.5407 58.8419 16.0246 56.3596 18.511C56.2257 18.6292 56.1364 18.7897 56.1064 18.9657C56.0877 20.5969 56.0955 22.2266 56.0955 23.9188C57.6674 23.9188 59.1471 23.9485 60.6267 23.8969C61.0237 23.872 61.4003 23.7122 61.6939 23.4438C64.0189 21.1657 66.3111 18.8563 68.6096 16.5516C68.7658 16.3954 68.8908 16.2219 69.0299 16.0579C68.9517 15.9969 68.933 15.9704 68.9142 15.9704C68.0299 15.9704 67.1455 15.961 66.258 15.9469C64.8627 15.9266 64.0814 15.1532 64.0705 13.7719C64.0455 12.8657 64.0627 11.9563 64.0627 10.9704Z" fill="#95222B"></path>
                                <path d="M40.12 55.7954C31.8528 55.7813 24.9215 49.436 24.2434 41.2501C23.8994 37.2917 25.0482 33.3479 27.4642 30.1935C29.8801 27.0392 33.3884 24.9024 37.2996 24.2032C38.1706 24.0499 39.0516 23.9611 39.9356 23.9376C41.17 23.9001 42.0418 24.6907 42.1121 25.8126C42.1825 26.9344 41.3481 27.7547 40.0809 27.9422C38.6246 28.1563 37.1121 28.2782 35.7496 28.7922C30.5825 30.7438 27.6418 35.8657 28.2856 41.5141C28.8637 46.5782 33.1028 50.8891 38.2965 51.6985C45.3106 52.7922 51.7512 47.5173 52.059 40.4344C52.1325 38.7516 52.884 37.8391 54.1528 37.8907C55.4575 37.9454 56.1543 38.9547 56.0653 40.6563C55.8602 44.7446 54.0899 48.5973 51.1213 51.4158C48.1527 54.2343 44.2134 55.8025 40.12 55.7954Z" fill="#95222B"></path>
                            </g>
                        </svg>