<svg xmlns="http://www.w3.org/2000/svg">

                                                                    <path class="st0" d="M15.5,47.4H5.9c-0.5,0-1-0.1-1.5-0.3c-0.5-0.2-0.9-0.5-1.3-0.9c-0.4-0.4-0.7-0.8-0.8-1.3C2.1,44.5,2,44,2,43.4
                                                                                    	v-5.6c0-4.4,1.7-8.6,4.8-11.7c1.5-1.5,3.3-2.7,5.3-3.6c2-0.8,4.1-1.3,6.3-1.3l0,0c2.8,0,5.6,0.7,8.1,2.2c2.5,1.4,4.5,3.5,6,5.9"></path>
                                                                    <path class="st0" d="M18.3,21.3c1.9,0,3.8-0.5,5.4-1.6c1.6-1,2.9-2.5,3.6-4.3c0.8-1.8,1-3.7,0.6-5.6c-0.4-1.9-1.3-3.6-2.6-5
                                                                                    	c-1.3-1.4-3.1-2.3-4.9-2.7c-1.9-0.4-3.8-0.2-5.6,0.5c-1.8,0.7-3.3,2-4.3,3.6c-1.1,1.6-1.6,3.5-1.6,5.4c0,2.5,1,5,2.8,6.8
                                                                                    	C13.3,20.2,15.8,21.3,18.3,21.3z"></path>
                                                                    <path class="st1" d="M45.9,39c0-1.1-0.4-2.1-1.1-2.8C44,35.4,43,35,42,34.9H24.9c-1.1,0-2.1,0.4-2.8,1.2c-0.7,0.8-1.2,1.8-1.1,2.8
                                                                                    	v9.1c0,1.1,0.4,2.1,1.1,2.8c0.7,0.8,1.8,1.2,2.8,1.2h9.7"></path>
                                                                    <path class="st1" d="M39.2,51.9c-0.8-0.8-1.4-1.8-1.6-3c-0.2-1.1-0.1-2.3,0.3-3.4c0.4-1.1,1.2-2,2.1-2.6c1-0.6,2.1-1,3.2-1"></path>
                                                                    <path class="st2" d="M40.6,40.2l2.8,1.9l-1.9,2.8"></path>
                                                                    <path class="st1" d="M47.6,43.4c0.8,0.8,1.4,1.8,1.6,3c0.2,1.1,0.1,2.3-0.3,3.4c-0.4,1.1-1.2,2-2.1,2.6c-1,0.6-2.1,1-3.2,1"></path>
                                                                    <path class="st2" d="M46.3,55.1l-2.8-1.9l1.9-2.8"></path>
                                                                </svg>