<svg  xmlns="http://www.w3.org/2000/svg">
                            <path d="M0 56.875C1.40766 55.3643 2.76732 53.8055 4.23185 52.3517C8.27709 48.3437 13.0759 45.66 18.6621 44.4496C23.7455 43.3239 29.0372 43.5742 33.9917 45.1747C34.5249 45.3436 35.0457 45.5302 35.6162 45.7222C36.1921 44.7322 36.743 43.792 37.2887 42.85C39.3006 39.3664 41.325 35.8917 43.305 32.3903C43.5717 31.9078 43.7151 31.3669 43.7227 30.8156C43.7475 21.3364 43.7475 11.8632 43.7227 2.39586C43.7227 1.27613 44.0479 0.430117 45.1445 0H46.0332C46.9059 0.48877 47.3431 1.1926 47.3271 2.2359C47.3271 2.51138 47.7181 2.90951 48.0238 3.05525C54.581 6.20471 61.1454 9.33816 67.7168 12.4556C68.0429 12.5956 68.3573 12.7615 68.657 12.9515C69.7661 13.7193 69.7465 15.1767 68.6197 15.9161C68.3419 16.0848 68.0527 16.2339 67.7541 16.3622C61.1862 19.4927 54.6166 22.6173 48.0452 25.7359C47.4888 25.999 47.3342 26.3047 47.2613 26.9196C46.8881 30.1509 47.839 32.9093 49.5719 35.6553C52.8546 40.8558 55.8459 46.2429 58.9545 51.5536C59.1634 51.8771 59.3418 52.2192 59.4877 52.5756C59.6479 52.98 59.651 53.4296 59.4964 53.8361C59.3418 54.2426 59.0407 54.5766 58.6523 54.7724C57.8988 55.1687 56.9976 54.9501 56.4431 54.2232C56.2206 53.9092 56.0171 53.5821 55.8335 53.2439C52.5869 47.7057 49.3414 42.1663 46.0972 36.6257C45.9354 36.3502 45.7648 36.0801 45.5267 35.6891L38.8883 47.1707C39.0698 47.3194 39.261 47.456 39.4606 47.5795C43.3547 49.6945 46.3105 52.9115 49.3586 56.0148C50.1371 56.8075 50.1371 57.7477 49.3764 58.5617C45.0361 63.2023 40.4079 67.4484 34.1357 69.3679C31.5781 70.1553 28.9814 70.7205 26.3011 70.7561C25.5493 70.7667 25.089 71.0138 24.7015 71.7069C21.8951 76.6462 19.0389 81.5552 16.1987 86.4749C16.0405 86.7504 15.9001 87.0347 15.7046 87.4027C16.0796 87.4204 16.3605 87.4435 16.6413 87.4435C27.7177 87.4435 38.7965 87.4495 49.8776 87.4613C50.5565 87.4613 50.912 87.264 51.255 86.6686C57.016 76.6408 62.7918 66.6202 68.5824 56.6066C68.641 56.5035 68.6979 56.4005 68.7601 56.2991C69.7643 54.6036 71.2715 54.5876 72.2561 56.2849C74.9115 60.8669 77.5597 65.4531 80.2009 70.0433C83.7958 76.2605 87.3955 82.4759 91 88.6895V91H12.0859C10.6641 90.1362 10.4561 89.3204 11.3021 87.8506C14.4303 82.4249 17.5596 76.9993 20.6901 71.5736C20.8678 71.2786 21.0224 70.9764 21.209 70.6352C20.8394 70.557 20.5834 70.4912 20.3204 70.4575C14.1672 69.4941 8.88672 66.7677 4.44336 62.4399C2.9024 60.9416 1.47697 59.326 0 57.7637V56.875ZM70.509 60.3693L54.9199 87.3884H86.1123L70.509 60.3693ZM24.9806 67.3009C30.4779 67.2867 35.0154 62.7313 34.971 57.2678C34.9266 51.758 30.3872 47.2667 24.9077 47.304C22.2712 47.3351 19.752 48.3988 17.891 50.2667C16.0301 52.1347 14.9758 54.6578 14.9546 57.2944C14.9492 62.7651 19.4957 67.3045 24.9806 67.292V67.3009ZM63.572 14.4196L47.3573 6.70592V22.1421L63.572 14.4196ZM45.6102 57.2962C42.9157 54.4631 40.168 51.7865 36.4231 50.034C39.1762 54.9501 39.162 59.6921 36.4231 64.5745C40.1502 62.7953 42.9229 60.1382 45.6102 57.2962ZM13.5167 50.0251C9.77361 51.7847 7.00984 54.4685 4.35271 57.2713C6.66326 60.1666 11.7145 64.1212 13.4083 64.3701C10.7654 59.653 10.7654 54.9359 13.5167 50.0251Z" fill="#124460"></path>
                            <path d="M61.6733 61.4855C61.3243 61.4855 60.9832 61.3819 60.6932 61.188C60.4031 60.994 60.1771 60.7183 60.0439 60.3958C59.9106 60.0734 59.876 59.7186 59.9444 59.3764C60.0129 59.0343 60.1813 58.7201 60.4284 58.4737C60.6756 58.2274 60.9902 58.0599 61.3326 57.9925C61.6749 57.925 62.0296 57.9607 62.3517 58.095C62.6738 58.2292 62.9488 58.456 63.1418 58.7467C63.3349 59.0373 63.4374 59.3787 63.4364 59.7277C63.4191 60.1893 63.2277 60.6272 62.9006 60.9534C62.5734 61.2795 62.1349 61.4696 61.6733 61.4855Z" fill="#95222B"></path>
                            <path d="M14.6435 34.802C14.8621 34.9282 15.3722 35.1166 15.7366 35.4614C16.9398 36.5971 18.1058 37.772 19.2557 38.9646C20.1071 39.8443 20.1444 40.9196 19.3979 41.6448C18.6514 42.37 17.6206 42.3131 16.7817 41.4991C15.5482 40.3082 14.3449 39.0854 13.1452 37.8608C12.58 37.2832 12.3952 36.5758 12.7275 35.824C13.0244 35.1504 13.5807 34.786 14.6435 34.802Z" fill="#95222B"></path>
                            <path d="M30.0078 40.0914C30.1447 39.8586 30.3295 39.3449 30.6725 38.9806C31.8083 37.7773 32.9831 36.6114 34.1775 35.4597C35.0661 34.6048 36.1325 34.5621 36.8541 35.2961C37.5757 36.0302 37.5331 37.0859 36.6764 37.9728C35.5016 39.1832 34.3054 40.3705 33.1004 41.5506C32.5281 42.1105 31.8367 42.3273 31.0689 41.9861C30.3917 41.6839 30.0238 41.1365 30.0078 40.0914Z" fill="#95222B"></path>
                            <path d="M26.7316 34.9374C26.7316 35.794 26.7636 36.6525 26.7316 37.5056C26.6765 38.6289 25.9727 39.3505 24.9951 39.3612C24.0176 39.3718 23.2569 38.6715 23.2178 37.5465C23.1627 35.7478 23.1609 33.9438 23.2178 32.1451C23.2569 31.0201 24.0318 30.3465 25.0307 30.3838C25.9922 30.4211 26.6303 31.0947 26.7227 32.1931C26.7227 32.2518 26.7316 32.3104 26.7316 32.3709C26.7316 33.2275 26.7316 34.0836 26.7316 34.9391V34.9374Z" fill="#95222B"></path>
                            <path d="M30.2745 57.2765C30.2618 58.6696 29.7021 60.0019 28.7162 60.9862C27.7303 61.9705 26.3971 62.528 25.004 62.5385C23.6109 62.549 22.2695 62.0116 21.2688 61.0423C20.2682 60.0729 19.6886 58.7492 19.6549 57.3565C19.6378 56.6518 19.7612 55.9508 20.0178 55.2943C20.2745 54.6378 20.6592 54.039 21.1497 53.5328C21.6401 53.0265 22.2264 52.6229 22.8744 52.3456C23.5225 52.0683 24.2192 51.9227 24.924 51.9174C25.6289 51.9121 26.3277 52.0471 26.9798 52.3147C27.6319 52.5822 28.2243 52.9769 28.7223 53.4757C29.2203 53.9745 29.614 54.5675 29.8805 55.22C30.147 55.8726 30.2809 56.5717 30.2745 57.2765ZM26.7092 57.2978C26.7095 56.953 26.6076 56.6159 26.4164 56.329C26.2252 56.0421 25.9532 55.8184 25.6349 55.686C25.3165 55.5537 24.9661 55.5187 24.6278 55.5855C24.2896 55.6523 23.9787 55.8178 23.7346 56.0613C23.4904 56.3047 23.3239 56.615 23.2561 56.953C23.1883 57.2911 23.2222 57.6416 23.3535 57.9604C23.4849 58.2792 23.7078 58.5518 23.9941 58.7439C24.2804 58.936 24.6173 59.0389 24.962 59.0396C25.1914 59.041 25.4188 58.997 25.6311 58.91C25.8433 58.823 26.0362 58.6949 26.1987 58.5329C26.3611 58.371 26.4899 58.1784 26.5775 57.9664C26.6651 57.7544 26.7099 57.5272 26.7092 57.2978Z" fill="#95222B"></path>
                        </svg>